<svg width="22" height="22" viewBox="0 0 22 22" fill="none" xmlns="http://www.w3.org/2000/svg">
    <path opacity="0.5"
        d="M1.83203 5.69266C1.83203 3.8732 1.83203 2.96347 2.43612 2.39824C3.04022 1.83301 4.01249 1.83301 5.95703 1.83301C7.90158 1.83301 8.87385 1.83301 9.47794 2.39824C10.082 2.96347 10.082 3.8732 10.082 5.69266V16.3067C10.082 18.1261 10.082 19.0359 9.47794 19.6011C8.87385 20.1663 7.90158 20.1663 5.95703 20.1663C4.01249 20.1663 3.04022 20.1663 2.43612 19.6011C1.83203 19.0359 1.83203 18.1261 1.83203 16.3067V5.69266Z"
        fill="#434CE7" />
    <path
        d="M11.918 14.1163C11.918 12.215 11.918 11.2643 12.5221 10.6737C13.1262 10.083 14.0984 10.083 16.043 10.083C17.9875 10.083 18.9598 10.083 19.5639 10.6737C20.168 11.2643 20.168 12.215 20.168 14.1163V16.133C20.168 18.0343 20.168 18.985 19.5639 19.5757C18.9598 20.1663 17.9875 20.1663 16.043 20.1663C14.0984 20.1663 13.1262 20.1663 12.5221 19.5757C11.918 18.985 11.918 18.0343 11.918 16.133V14.1163Z"
        fill="#434CE7" />
    <path
        d="M11.918 5.04134C11.918 4.04474 11.918 3.54644 12.075 3.15338C12.2843 2.62929 12.6858 2.21291 13.1912 1.99582C13.5702 1.83301 14.0507 1.83301 15.0117 1.83301H17.0742C18.0352 1.83301 18.5157 1.83301 18.8948 1.99582C19.4001 2.21291 19.8016 2.62929 20.011 3.15338C20.168 3.54644 20.168 4.04474 20.168 5.04134C20.168 6.03794 20.168 6.53624 20.011 6.9293C19.8016 7.45339 19.4001 7.86978 18.8948 8.08686C18.5157 8.24967 18.0352 8.24967 17.0742 8.24967H15.0117C14.0507 8.24967 13.5702 8.24967 13.1912 8.08686C12.6858 7.86978 12.2843 7.45339 12.075 6.9293C11.918 6.53624 11.918 6.03794 11.918 5.04134Z"
        fill="#434CE7" />
</svg>
    