<svg width="22" height="22" viewBox="0 0 22 22" fill="none" xmlns="http://www.w3.org/2000/svg">
    <path
        d="M2.75 5.85348C2.75 5.4094 3.0666 5.0494 3.45714 5.0494L5.89936 5.04897C6.38461 5.03498 6.81268 4.68415 6.97779 4.16511C6.98214 4.15147 6.98713 4.13464 7.00503 4.07356L7.11026 3.71452C7.17466 3.49438 7.23076 3.30259 7.30927 3.13117C7.61941 2.45392 8.19324 1.98363 8.85635 1.86323C9.02419 1.83275 9.20194 1.83288 9.40597 1.83303H12.5942C12.7982 1.83288 12.976 1.83275 13.1438 1.86323C13.8069 1.98363 14.3807 2.45392 14.6909 3.13117C14.7694 3.30259 14.8255 3.49438 14.8899 3.71452L14.9951 4.07356C15.013 4.13464 15.018 4.15147 15.0224 4.16511C15.1875 4.68415 15.7005 5.03541 16.1857 5.0494H18.5429C18.9334 5.0494 19.25 5.4094 19.25 5.85348C19.25 6.29757 18.9334 6.65757 18.5429 6.65757H3.45714C3.0666 6.65757 2.75 6.29757 2.75 5.85348Z"
        fill="#82838A" />
    <path fill-rule="evenodd" clip-rule="evenodd"
        d="M8.63867 10.5251C9.01648 10.4854 9.35339 10.7755 9.39117 11.1732L9.8495 15.9978C9.88728 16.3955 9.61164 16.7501 9.23382 16.7899C8.85601 16.8296 8.51911 16.5395 8.48133 16.1418L8.02299 11.3172C7.98521 10.9195 8.26086 10.5649 8.63867 10.5251Z"
        fill="#82838A" />
    <path fill-rule="evenodd" clip-rule="evenodd"
        d="M13.3588 10.5251C13.7366 10.5649 14.0123 10.9195 13.9745 11.3172L13.5162 16.1418C13.4784 16.5395 13.1415 16.8296 12.7637 16.7899C12.3859 16.7501 12.1102 16.3955 12.148 15.9978L12.6063 11.1732C12.6441 10.7755 12.981 10.4854 13.3588 10.5251Z"
        fill="#82838A" />
    <path opacity="0.5"
        d="M10.628 20.1669H11.3694C13.9202 20.1669 15.1956 20.1669 16.0249 19.3548C16.8541 18.5427 16.939 17.2106 17.1087 14.5464L17.3531 10.7075C17.4452 9.26188 17.4912 8.53909 17.0752 8.08107C16.6592 7.62305 15.9567 7.62305 14.5517 7.62305H7.44574C6.04069 7.62305 5.33817 7.62305 4.92216 8.08107C4.50615 8.53909 4.55218 9.26188 4.64425 10.7075L4.88874 14.5464C5.05842 17.2106 5.14326 18.5427 5.97251 19.3548C6.80177 20.1669 8.07718 20.1669 10.628 20.1669Z"
        fill="#82838A" />
</svg>
    