<svg width="22" height="22" viewBox="0 0 22 22" fill="none" xmlns="http://www.w3.org/2000/svg">
    <path opacity="0.5" fill-rule="evenodd" clip-rule="evenodd"
        d="M9.16536 20.1663H12.832C16.289 20.1663 18.0175 20.1663 19.0914 19.0924C20.1654 18.0185 20.1654 16.29 20.1654 12.833V12.4323C20.1654 11.6323 20.1654 11.0312 20.1263 10.5414H16.4987L16.4118 10.5414C15.4061 10.5415 14.5173 10.5416 13.8009 10.4453C13.0244 10.3409 12.248 10.1012 11.6143 9.4675C10.9806 8.83383 10.7409 8.05743 10.6365 7.2809C10.5402 6.56451 10.5403 5.67574 10.5404 4.67006L10.5488 2.07186C10.5491 1.99629 10.5555 1.92155 10.5679 1.84828C10.1933 1.83301 9.74818 1.83301 9.19267 1.83301C5.7175 1.83301 3.97991 1.83301 2.90597 2.90695C1.83203 3.98089 1.83203 5.70937 1.83203 9.16634V12.833C1.83203 16.29 1.83203 18.0185 2.90597 19.0924C3.97991 20.1663 5.7084 20.1663 9.16536 20.1663Z"
        fill="#82838A" />
    <path
        d="M7.32016 11.8734C7.58461 11.6255 7.99612 11.6255 8.26058 11.8734L10.0939 13.5922C10.3709 13.8519 10.3849 14.287 10.1253 14.564C9.86557 14.841 9.43049 14.855 9.15349 14.5953L8.47787 13.9619L8.47787 16.9583C8.47787 17.338 8.17006 17.6458 7.79037 17.6458C7.41067 17.6458 7.10287 17.338 7.10287 16.9583L7.10287 13.9619L6.42724 14.5953C6.15024 14.855 5.71517 14.841 5.45548 14.564C5.19579 14.287 5.20982 13.8519 5.48682 13.5922L7.32016 11.8734Z"
        fill="#82838A" />
    <path
        d="M10.5514 2.07192L10.543 4.67012C10.5429 5.6758 10.5428 6.56457 10.6391 7.28096C10.7435 8.05749 10.9833 8.83389 11.6169 9.46756C12.2506 10.1012 13.027 10.3409 13.8035 10.4453C14.5199 10.5417 15.4087 10.5416 16.4143 10.5415L20.1289 10.5415C20.1403 10.6841 20.1484 10.8361 20.1541 10.9997H20.168C20.168 10.7545 20.168 10.6319 20.1589 10.4876C20.1071 9.66757 19.7662 8.72797 19.2802 8.06548C19.1946 7.94886 19.1361 7.87885 19.0191 7.73883C18.2926 6.86929 17.3364 5.78609 16.5013 5.0414C15.758 4.37858 14.7401 3.65341 13.8523 3.06045C13.0895 2.55101 12.7081 2.29629 12.1852 2.10697C12.0466 2.05678 11.8637 2.00134 11.7205 1.9661C11.3685 1.87945 11.0259 1.84931 10.543 1.83887L10.5514 2.07192Z"
        fill="#82838A" />
</svg>
    