<svg width="22" height="22" viewBox="0 0 22 22" fill="none" xmlns="http://www.w3.org/2000/svg">
    <path opacity="0.5"
        d="M7.46271 4.125C7.33333 4.89763 7.33333 5.92395 7.33333 7.33333V14.6667C7.33333 16.076 7.33333 17.1024 7.46271 17.875H7.33333C5.17273 17.875 4.09243 17.875 3.42121 17.2038C2.75 16.5326 2.75 15.4523 2.75 13.2917V8.70833C2.75 6.54773 2.75 5.46743 3.42121 4.79621C4.09243 4.125 5.17273 4.125 7.33333 4.125H7.46271Z"
        fill="#82838A" />
    <path fill-rule="evenodd" clip-rule="evenodd"
        d="M8.13749 2.63846C7.33203 3.44392 7.33203 4.74028 7.33203 7.33301V14.6663C7.33203 17.2591 7.33203 18.5554 8.13749 19.3609C8.94294 20.1663 10.2393 20.1663 12.832 20.1663H13.7487C16.3414 20.1663 17.6378 20.1663 18.4432 19.3609C19.2487 18.5554 19.2487 17.2591 19.2487 14.6663V7.33301C19.2487 4.74028 19.2487 3.44392 18.4432 2.63846C17.6378 1.83301 16.3414 1.83301 13.7487 1.83301H12.832C10.2393 1.83301 8.94294 1.83301 8.13749 2.63846ZM13.7765 6.84687C13.508 6.57839 13.0727 6.57839 12.8042 6.84687L10.5126 9.13854C10.2441 9.40702 10.2441 9.84232 10.5126 10.1108C10.781 10.3793 11.2163 10.3793 11.4848 10.1108L12.6029 8.99278V14.6663C12.6029 15.046 12.9107 15.3538 13.2904 15.3538C13.6701 15.3538 13.9779 15.046 13.9779 14.6663V8.99278L15.0959 10.1108C15.3644 10.3793 15.7997 10.3793 16.0682 10.1108C16.3367 9.84232 16.3367 9.40702 16.0682 9.13854L13.7765 6.84687Z"
        fill="#82838A" />
</svg>
    