<svg width="22" height="22" viewBox="0 0 22 22" fill="none" xmlns="http://www.w3.org/2000/svg">
    <path opacity="0.5"
        d="M3.82394 2.90695C2.75 3.98089 2.75 5.70937 2.75 9.16634V12.833C2.75 16.29 2.75 18.0185 3.82394 19.0924C4.89788 20.1663 6.62637 20.1663 10.0833 20.1663H11.9167C15.3736 20.1663 17.1021 20.1663 18.1761 19.0924C19.25 18.0185 19.25 16.29 19.25 12.833V9.16634C19.25 5.70937 19.25 3.98089 18.1761 2.90695C17.1021 1.83301 15.3736 1.83301 11.9167 1.83301H10.0833C6.62637 1.83301 4.89788 1.83301 3.82394 2.90695Z"
        fill="#82838A" />
    <path
        d="M5.5 11C5.5 9.70364 5.5 9.05546 5.90273 8.65273C6.30546 8.25 6.95364 8.25 8.25 8.25H13.75C15.0464 8.25 15.6945 8.25 16.0973 8.65273C16.5 9.05546 16.5 9.70364 16.5 11V14.6667C16.5 15.963 16.5 16.6112 16.0973 17.0139C15.6945 17.4167 15.0464 17.4167 13.75 17.4167H8.25C6.95364 17.4167 6.30546 17.4167 5.90273 17.0139C5.5 16.6112 5.5 15.963 5.5 14.6667V11Z"
        fill="#82838A" />
    <path
        d="M6.41667 4.8125C6.03697 4.8125 5.72917 5.1203 5.72917 5.5C5.72917 5.8797 6.03697 6.1875 6.41667 6.1875H11C11.3797 6.1875 11.6875 5.8797 11.6875 5.5C11.6875 5.1203 11.3797 4.8125 11 4.8125H6.41667Z"
        fill="#82838A" />
</svg>
    