<svg width="22" height="22" viewBox="0 0 22 22" fill="none" xmlns="http://www.w3.org/2000/svg">
    <path
        d="M11.0013 9.16634C15.0514 9.16634 18.3346 7.52472 18.3346 5.49967C18.3346 3.47463 15.0514 1.83301 11.0013 1.83301C6.95121 1.83301 3.66797 3.47463 3.66797 5.49967C3.66797 7.52472 6.95121 9.16634 11.0013 9.16634Z"
        fill="#82838A" />
    <path opacity="0.5"
        d="M3.66797 11V16.5C3.66797 18.525 6.95121 20.1667 11.0013 20.1667C15.0514 20.1667 18.3346 18.525 18.3346 16.5V11C18.3346 13.025 15.0514 14.6667 11.0013 14.6667C6.95121 14.6667 3.66797 13.025 3.66797 11Z"
        fill="#82838A" />
    <path opacity="0.7"
        d="M3.66797 5.5V11C3.66797 13.025 6.95121 14.6667 11.0013 14.6667C15.0514 14.6667 18.3346 13.025 18.3346 11V5.5C18.3346 7.52504 15.0514 9.16667 11.0013 9.16667C6.95121 9.16667 3.66797 7.52504 3.66797 5.5Z"
        fill="#82838A" />
</svg>
    